<svg width="192" height="192" viewBox="0 0 192 192" fill="none" xmlns="http://www.w3.org/2000/svg">
<rect y="27" width="192" height="133" rx="19" fill="#2B2A2A"/>
<path d="M33.2997 79.5455H40.7159L50.6477 103.787H51.0398L60.9716 79.5455H68.3878V113H62.5724V90.0163H62.2621L53.0163 112.902H48.6712L39.4254 89.9673H39.1151V113H33.2997V79.5455ZM96.076 79.5455H102.136V101.402C102.136 103.798 101.57 105.905 100.438 107.724C99.3158 109.542 97.7367 110.964 95.7003 111.987C93.6638 113 91.2843 113.506 88.5618 113.506C85.8284 113.506 83.4434 113 81.407 111.987C79.3705 110.964 77.7914 109.542 76.6697 107.724C75.5481 105.905 74.9872 103.798 74.9872 101.402V79.5455H81.0476V100.896C81.0476 102.29 81.3525 103.531 81.9624 104.62C82.5831 105.709 83.4543 106.564 84.576 107.185C85.6977 107.795 87.0263 108.099 88.5618 108.099C90.0973 108.099 91.4259 107.795 92.5476 107.185C93.6802 106.564 94.5514 105.709 95.1612 104.62C95.7711 103.531 96.076 102.29 96.076 100.896V79.5455ZM107.253 84.6257V79.5455H133.945V84.6257H123.605V113H117.594V84.6257H107.253ZM139.091 113V79.5455H160.849V84.6257H145.151V93.7081H159.722V98.7884H145.151V107.92H160.98V113H139.091Z" fill="#FF0000"/>
</svg>
